/* XPM */
static char * folder_xpm[] = {
/* width height num_colors chars_per_pixel */
"16 16 5 1",
/* colors */
" 	s None	c None",
".	c black",
"X	c #f0ff80",
"o	c white",
"O	c #808080808080",
/* pixels */
"                ",
"   ......       ",
"  .XXXXXX.      ",
"  .XXXXXX.      ",
" .............  ",
".oooooooooooo.. ",
".oXoXoXoXoXoO.. ",
".ooXoXoXoXoXo.. ",
".oXoXoXoXoXoO.. ",
".ooXoXoXoXoXo.. ",
".oXoXoXoXoXoO.. ",
".ooXoXoXoXoXo.. ",
".oOoOoOoOoOoO.. ",
"............... ",
" .............  ",
"                "};
